<svg width="22" height="22" fill="none" xmlns="http://www.w3.org/2000/svg"><path d="M6.782 14.376h9.578c.585 0 1.064.48 1.064 1.065s-.479 1.064-1.064 1.064H5.718a1.067 1.067 0 01-1.064-1.064V4.797H2.525a1.067 1.067 0 01-1.064-1.064c0-.585.479-1.064 1.064-1.064h3.193c.585 0 1.064.479 1.064 1.064v2.129h13.835l-4.257 7.449H6.782v1.064zM6.25 17.57c.883 0 1.596.713 1.596 1.596 0 .884-.713 1.597-1.596 1.597a1.594 1.594 0 01-1.596-1.597c0-.883.713-1.596 1.596-1.596zm9.578 0c.883 0 1.596.713 1.596 1.596 0 .884-.713 1.597-1.596 1.597a1.594 1.594 0 01-1.596-1.597c0-.883.713-1.596 1.596-1.596z" fill="#000"/></svg>