<svg width="23" height="24" fill="none" xmlns="http://www.w3.org/2000/svg"><path d="M20.05 17.241c0-.36-.127-.668-.38-.92l-2.817-2.818a1.254 1.254 0 00-.92-.379c-.38 0-.705.145-.976.434l.257.25c.145.14.242.237.292.291.05.054.117.14.203.258.085.117.144.232.176.345.031.113.047.237.047.372 0 .362-.126.669-.379.921-.253.253-.56.38-.921.38-.135 0-.26-.016-.372-.048a1.089 1.089 0 01-.346-.176 3.265 3.265 0 01-.257-.203 8.404 8.404 0 01-.291-.291l-.25-.258c-.299.28-.448.61-.448.99 0 .36.127.667.38.92l2.79 2.804c.243.243.55.365.92.365.361 0 .669-.117.921-.352l1.991-1.977a1.24 1.24 0 00.38-.908zm-9.522-9.548c0-.36-.126-.668-.379-.92L7.36 3.968a1.254 1.254 0 00-.92-.38c-.353 0-.66.122-.922.366l-1.99 1.978c-.253.252-.38.555-.38.907 0 .361.127.668.38.921l2.816 2.817c.244.244.551.366.921.366.38 0 .705-.14.976-.42l-.258-.25a8.38 8.38 0 01-.291-.292 3.226 3.226 0 01-.203-.257 1.09 1.09 0 01-.176-.346 1.379 1.379 0 01-.048-.372c0-.361.127-.668.38-.921.252-.253.56-.38.92-.38.136 0 .26.017.373.048.113.032.228.09.345.176.118.086.204.154.258.203.054.05.151.147.29.292l.251.257c.298-.28.447-.61.447-.989zm12.122 9.548c0 1.084-.384 2-1.151 2.75l-1.991 1.977c-.75.75-1.666 1.124-2.75 1.124-1.092 0-2.013-.384-2.762-1.151l-2.79-2.804c-.75-.749-1.125-1.665-1.125-2.749 0-1.11.398-2.054 1.192-2.83l-1.192-1.192c-.776.794-1.715 1.192-2.817 1.192-1.083 0-2.004-.38-2.762-1.138L1.685 9.603C.926 8.844.547 7.923.547 6.84s.384-2 1.151-2.75L3.69 2.114C4.439 1.364 5.355.99 6.439.99c1.091 0 2.012.383 2.761 1.15l2.79 2.804c.75.75 1.124 1.666 1.124 2.75 0 1.11-.397 2.053-1.192 2.83l1.192 1.192c.777-.795 1.716-1.192 2.817-1.192 1.084 0 2.005.379 2.763 1.138l2.817 2.816c.758.759 1.138 1.68 1.138 2.763z" fill="#000"/></svg>