<svg width="199" height="65" fill="none" xmlns="http://www.w3.org/2000/svg"><path d="M84.243 22.913c2.194 0 4.119.429 5.775 1.287 1.675.858 2.962 2.084 3.86 3.68.917 1.576 1.376 3.411 1.376 5.506 0 2.094-.459 3.93-1.376 5.506-.898 1.555-2.185 2.762-3.86 3.62-1.656.858-3.581 1.287-5.775 1.287h-7.301V22.913h7.3zm-.15 17.325c2.194 0 3.89-.598 5.087-1.795 1.197-1.197 1.795-2.883 1.795-5.057 0-2.175-.598-3.87-1.795-5.087-1.197-1.237-2.893-1.855-5.087-1.855h-2.962v13.794h2.962zm16.421-14.991c-.738 0-1.356-.23-1.855-.688-.479-.479-.718-1.067-.718-1.766 0-.698.24-1.276.718-1.735.499-.479 1.117-.718 1.855-.718s1.347.24 1.826.718c.498.459.748 1.037.748 1.735 0 .699-.25 1.287-.748 1.766-.479.459-1.088.688-1.826.688zm2.065 1.975v16.577h-4.19V27.222h4.19zm11.051 12.717l4.189-12.717h4.458l-6.134 16.577h-5.086l-6.105-16.577h4.489l4.189 12.717zm26.41-4.788a9.98 9.98 0 01-.119 1.616h-12.119c.1 1.197.519 2.134 1.257 2.813.738.678 1.646 1.017 2.723 1.017 1.556 0 2.663-.668 3.321-2.005h4.518c-.478 1.596-1.396 2.913-2.753 3.95-1.356 1.017-3.022 1.526-4.997 1.526-1.595 0-3.032-.349-4.308-1.047a7.707 7.707 0 01-2.963-3.022c-.698-1.297-1.047-2.793-1.047-4.489 0-1.715.349-3.221 1.047-4.518.699-1.297 1.676-2.294 2.933-2.992 1.256-.698 2.703-1.047 4.338-1.047 1.576 0 2.983.339 4.22 1.017a7.02 7.02 0 012.902 2.902c.698 1.237 1.047 2.663 1.047 4.28zm-4.338-1.197c-.02-1.077-.409-1.935-1.167-2.573-.758-.658-1.686-.987-2.783-.987-1.038 0-1.915.319-2.633.957-.699.619-1.127 1.486-1.287 2.603h7.87zm14.607 10.054c-1.456 0-2.773-.25-3.95-.748-1.157-.498-2.074-1.217-2.752-2.154-.679-.938-1.028-2.045-1.048-3.322h4.489c.06.858.359 1.537.897 2.035.559.499 1.317.748 2.274.748.978 0 1.746-.23 2.304-.688.559-.479.838-1.097.838-1.855 0-.619-.189-1.127-.568-1.526a3.809 3.809 0 00-1.436-.928c-.559-.24-1.337-.498-2.334-.778-1.357-.399-2.464-.788-3.322-1.167-.838-.399-1.566-.987-2.184-1.765-.599-.798-.898-1.855-.898-3.172 0-1.237.309-2.314.928-3.232.618-.917 1.486-1.615 2.603-2.094 1.117-.499 2.394-.748 3.83-.748 2.154 0 3.9.528 5.236 1.586 1.357 1.037 2.105 2.493 2.245 4.368h-4.608c-.04-.718-.349-1.306-.928-1.765-.559-.479-1.307-.718-2.244-.718-.818 0-1.476.21-1.975.628-.479.42-.718 1.027-.718 1.825 0 .559.179 1.028.538 1.407.379.359.838.658 1.377.898.558.219 1.336.478 2.334.777 1.356.4 2.463.798 3.321 1.197.858.4 1.596.998 2.214 1.796.619.798.928 1.845.928 3.142a5.905 5.905 0 01-.868 3.111c-.578.958-1.426 1.726-2.543 2.304-1.117.559-2.444.838-3.98.838zm26.433-8.857c0 .599-.04 1.137-.12 1.616h-12.118c.099 1.197.518 2.134 1.256 2.813.738.678 1.646 1.017 2.723 1.017 1.556 0 2.663-.668 3.322-2.005h4.518c-.479 1.596-1.396 2.913-2.753 3.95-1.356 1.017-3.022 1.526-4.997 1.526-1.596 0-3.032-.349-4.309-1.047a7.711 7.711 0 01-2.962-3.022c-.698-1.297-1.047-2.793-1.047-4.489 0-1.715.349-3.221 1.047-4.518.698-1.297 1.676-2.294 2.932-2.992 1.257-.698 2.703-1.047 4.339-1.047 1.576 0 2.982.339 4.219 1.017a7.023 7.023 0 012.903 2.902c.698 1.237 1.047 2.663 1.047 4.28zm-4.339-1.197c-.02-1.077-.409-1.935-1.167-2.573-.758-.658-1.685-.987-2.783-.987-1.037 0-1.915.319-2.633.957-.698.619-1.127 1.486-1.286 2.603h7.869zm6.319 1.496c0-1.675.329-3.161.988-4.458.678-1.297 1.586-2.294 2.723-2.992 1.157-.698 2.443-1.047 3.86-1.047 1.236 0 2.314.249 3.231.748.938.498 1.686 1.127 2.244 1.885v-2.364h4.22v16.577h-4.22v-2.424c-.538.778-1.286 1.426-2.244 1.945-.937.499-2.024.748-3.261.748a7.118 7.118 0 01-3.83-1.077c-1.137-.718-2.045-1.726-2.723-3.022-.659-1.317-.988-2.823-.988-4.519zm13.046.06c0-1.017-.199-1.885-.598-2.603-.399-.738-.938-1.296-1.616-1.675a4.234 4.234 0 00-2.184-.599c-.778 0-1.496.19-2.155.569-.658.379-1.196.937-1.615 1.675-.399.718-.599 1.576-.599 2.573 0 .998.2 1.876.599 2.634.419.738.957 1.306 1.615 1.705a4.187 4.187 0 002.155.599c.778 0 1.506-.19 2.184-.569a4.356 4.356 0 001.616-1.675c.399-.739.598-1.616.598-2.634zM57.551 44.308c-2.383 0-3.44-.92-4.929-2.22-1.652-1.409-3.71-3.196-7.583-3.196-3.9 0-5.931 1.787-7.583 3.195-1.49 1.3-2.573 2.221-4.957 2.221-2.356 0-3.44-.92-4.929-2.22-1.652-1.409-3.71-3.196-7.583-3.196-3.9 0-5.958 1.787-7.61 3.195-1.49 1.3-2.546 2.221-4.93 2.221-1.11 0-2.031.921-2.031 2.032 0 1.137.92 2.03 2.031 2.03 3.9 0 5.932-1.76 7.584-3.195 1.49-1.3 2.572-2.22 4.956-2.22 2.383 0 3.44.92 4.929 2.22 1.652 1.435 3.71 3.196 7.583 3.196 3.9 0 5.959-1.76 7.61-3.196 1.49-1.3 2.547-2.22 4.93-2.22 2.356 0 3.44.92 4.93 2.22 1.651 1.435 3.71 3.196 7.582 3.196a2.03 2.03 0 002.032-2.032c0-1.11-.921-2.03-2.032-2.03zm0-11.158c-2.383 0-3.44-.948-4.929-2.22-1.652-1.436-3.71-3.197-7.583-3.197-3.9 0-5.931 1.76-7.583 3.196-1.49 1.273-2.573 2.221-4.957 2.221-2.356 0-3.44-.948-4.929-2.22-1.652-1.436-3.71-3.197-7.583-3.197-3.9 0-5.958 1.76-7.61 3.196-1.49 1.273-2.546 2.221-4.93 2.221-1.11 0-2.031.894-2.031 2.031 0 1.11.92 2.032 2.031 2.032 3.9 0 5.932-1.788 7.584-3.223 1.49-1.273 2.572-2.194 4.956-2.194 2.383 0 3.44.92 4.929 2.194 1.652 1.435 3.71 3.223 7.583 3.223 3.9 0 5.959-1.788 7.61-3.223 1.49-1.273 2.547-2.194 4.93-2.194 2.356 0 3.44.92 4.93 2.194 1.651 1.435 3.71 3.223 7.582 3.223 1.11 0 2.032-.921 2.032-2.032 0-1.137-.921-2.03-2.032-2.03zM7.447 26.11c3.9 0 5.932-1.788 7.584-3.197 1.49-1.3 2.572-2.22 4.956-2.22 2.383 0 3.44.92 4.929 2.22 1.652 1.409 3.71 3.196 7.583 3.196 3.9 0 5.959-1.787 7.61-3.196 1.49-1.3 2.547-2.22 4.93-2.22 2.356 0 3.44.92 4.93 2.22 1.651 1.409 3.71 3.196 7.582 3.196 1.11 0 2.032-.92 2.032-2.031a2.028 2.028 0 00-2.032-2.031c-2.383 0-3.44-.921-4.929-2.221-1.652-1.436-3.71-3.196-7.583-3.196-3.9 0-5.931 1.76-7.583 3.196-1.49 1.3-2.573 2.22-4.957 2.22-2.356 0-3.44-.92-4.929-2.22-1.652-1.436-3.71-3.196-7.583-3.196-3.9 0-5.958 1.76-7.61 3.196-1.49 1.3-2.546 2.22-4.93 2.22-1.11 0-2.031.894-2.031 2.032 0 1.11.92 2.031 2.031 2.031z" fill="#fff"/></svg>