<svg width="26" height="25" fill="none" xmlns="http://www.w3.org/2000/svg"><path fill-rule="evenodd" clip-rule="evenodd" d="M21.313 12.457c0 .808.693 1.465 1.546 1.465.43 0 .778.33.778.738v2.657c0 2.247-1.929 4.075-4.3 4.075H7.178c-2.37 0-4.3-1.828-4.3-4.075V14.66c0-.407.349-.738.778-.738.854 0 1.547-.657 1.547-1.465 0-.787-.665-1.379-1.547-1.379a.8.8 0 01-.55-.216.72.72 0 01-.228-.522l.002-2.744c0-2.247 1.929-4.075 4.3-4.075h12.157c2.37 0 4.3 1.828 4.3 4.075l.001 2.659a.72.72 0 01-.227.521.8.8 0 01-.552.216c-.852 0-1.545.658-1.545 1.465zm-5.718.642l1.223-1.129a.694.694 0 00.194-.748.75.75 0 00-.618-.492l-1.691-.235-.757-1.452a.77.77 0 00-.687-.406h-.002a.772.772 0 00-.688.405l-.757 1.453-1.688.234a.756.756 0 00-.623.493.698.698 0 00.195.748l1.223 1.13-.288 1.596a.708.708 0 00.306.713.802.802 0 00.807.054l1.513-.753 1.51.751a.79.79 0 00.81-.053.704.704 0 00.307-.712l-.29-1.597z" fill="#130F26"/></svg>